<?xml version="1.0" standalone="no"?>
<!DOCTYPE svg PUBLIC "-//W3C//DTD SVG 20010904//EN"
 "http://www.w3.org/TR/2001/REC-SVG-20010904/DTD/svg10.dtd">
<svg version="1.0" xmlns="http://www.w3.org/2000/svg"
 width="300.000000pt" height="300.000000pt" viewBox="0 0 300.000000 300.000000"
 preserveAspectRatio="xMidYMid meet">
<metadata>
Created by potrace 1.11, written by Peter Selinger 2001-2013
</metadata>
<g transform="translate(0.000000,300.000000) scale(0.100000,-0.100000)"
fill="#000000" stroke="none">
<path d="M937 2350 c-31 -16 -64 -35 -72 -42 -37 -31 -85 -82 -85 -90 0 -5 -4
-6 -10 -3 -5 3 -10 -1 -10 -9 0 -9 -4 -16 -9 -16 -5 0 -14 -13 -21 -30 -7 -16
-16 -30 -21 -30 -5 0 -9 -9 -9 -19 0 -11 -5 -23 -11 -26 -5 -4 -8 -12 -6 -18
2 -7 0 -22 -4 -34 -5 -14 -5 -23 1 -23 6 0 10 -9 10 -19 0 -11 27 -48 60 -82
40 -41 60 -70 60 -86 0 -18 5 -24 18 -21 24 5 132 -102 132 -132 0 -16 4 -20
15 -16 10 4 127 -106 368 -347 194 -194 365 -360 379 -370 15 -9 76 -33 135
-53 133 -44 137 -45 141 -44 1 0 15 -6 31 -14 16 -9 31 -12 35 -9 3 4 6 1 6
-5 0 -7 3 -11 8 -11 4 1 9 1 12 -1 3 -1 16 -4 30 -6 13 -2 27 -9 31 -15 3 -6
9 -10 13 -9 3 0 36 -8 72 -19 75 -22 99 -19 89 13 -3 11 -8 36 -12 54 -3 17
-10 32 -15 32 -5 0 -7 4 -4 8 3 5 -2 21 -10 37 -8 15 -15 39 -16 52 -1 12 -6
23 -11 23 -5 0 -7 9 -4 20 3 11 2 18 -2 15 -6 -3 -60 148 -67 190 -1 6 -8 24
-15 40 -6 17 -13 35 -15 40 -9 40 -31 72 -88 130 -36 36 -66 71 -66 76 0 5 -4
9 -9 9 -10 0 -554 544 -559 559 -2 6 -10 11 -17 11 -8 0 -11 7 -8 20 4 16 0
20 -19 20 -31 0 -141 112 -132 134 4 10 0 16 -10 17 -9 1 -20 3 -26 4 -5 1
-14 3 -20 4 -5 0 -10 8 -10 16 0 8 -4 15 -10 15 -5 0 -20 11 -33 23 -69 70
-124 79 -210 37z"/>
</g>
</svg>
